<svg id="visual" viewBox="0 0 960 192" width="960" height="192" xmlns="http://www.w3.org/2000/svg" xmlns:xlink="http://www.w3.org/1999/xlink" version="1.1"><path d="M0 129L16 124.7C32 120.3 64 111.7 96 110.5C128 109.3 160 115.7 192 118.5C224 121.3 256 120.7 288 120C320 119.3 352 118.7 384 113.5C416 108.3 448 98.7 480 97.5C512 96.3 544 103.7 576 109.5C608 115.3 640 119.7 672 121.8C704 124 736 124 768 119.2C800 114.3 832 104.7 864 97C896 89.3 928 83.7 944 80.8L960 78L960 0L944 0C928 0 896 0 864 0C832 0 800 0 768 0C736 0 704 0 672 0C640 0 608 0 576 0C544 0 512 0 480 0C448 0 416 0 384 0C352 0 320 0 288 0C256 0 224 0 192 0C160 0 128 0 96 0C64 0 32 0 16 0L0 0Z" fill="#ef5f67"></path></svg>