<svg id="visual" viewBox="0 0 960 192" width="960" height="192" xmlns="http://www.w3.org/2000/svg" xmlns:xlink="http://www.w3.org/1999/xlink" version="1.1"><path d="M0 34L16 31.8C32 29.7 64 25.3 96 24.7C128 24 160 27 192 31.3C224 35.7 256 41.3 288 43C320 44.7 352 42.3 384 39.7C416 37 448 34 480 31.5C512 29 544 27 576 26.5C608 26 640 27 672 28.2C704 29.3 736 30.7 768 33C800 35.3 832 38.7 864 38.8C896 39 928 36 944 34.5L960 33L960 0L944 0C928 0 896 0 864 0C832 0 800 0 768 0C736 0 704 0 672 0C640 0 608 0 576 0C544 0 512 0 480 0C448 0 416 0 384 0C352 0 320 0 288 0C256 0 224 0 192 0C160 0 128 0 96 0C64 0 32 0 16 0L0 0Z" fill="#c62368"></path></svg>