<svg id="visual" viewBox="0 0 960 192" width="960" height="192" xmlns="http://www.w3.org/2000/svg" xmlns:xlink="http://www.w3.org/1999/xlink" version="1.1"><path d="M0 53L16 53C32 53 64 53 96 55.5C128 58 160 63 192 61.7C224 60.3 256 52.7 288 51.8C320 51 352 57 384 60.7C416 64.3 448 65.7 480 62.5C512 59.3 544 51.7 576 47.8C608 44 640 44 672 45.5C704 47 736 50 768 50.5C800 51 832 49 864 48.5C896 48 928 49 944 49.5L960 50L960 0L944 0C928 0 896 0 864 0C832 0 800 0 768 0C736 0 704 0 672 0C640 0 608 0 576 0C544 0 512 0 480 0C448 0 416 0 384 0C352 0 320 0 288 0C256 0 224 0 192 0C160 0 128 0 96 0C64 0 32 0 16 0L0 0Z" fill="#d53867"></path></svg>