<svg id="visual" viewBox="0 0 960 192" width="960" height="192" xmlns="http://www.w3.org/2000/svg" xmlns:xlink="http://www.w3.org/1999/xlink" version="1.1"><path d="M0 152L16 151.7C32 151.3 64 150.7 96 141.3C128 132 160 114 192 108.8C224 103.7 256 111.3 288 113.2C320 115 352 111 384 112.8C416 114.7 448 122.3 480 121.3C512 120.3 544 110.7 576 109.2C608 107.7 640 114.3 672 121.5C704 128.7 736 136.3 768 134.5C800 132.7 832 121.3 864 117.7C896 114 928 118 944 120L960 122L960 0L944 0C928 0 896 0 864 0C832 0 800 0 768 0C736 0 704 0 672 0C640 0 608 0 576 0C544 0 512 0 480 0C448 0 416 0 384 0C352 0 320 0 288 0C256 0 224 0 192 0C160 0 128 0 96 0C64 0 32 0 16 0L0 0Z" fill="#fa7268"></path></svg>