<svg id="visual" viewBox="0 0 960 192" width="960" height="192" xmlns="http://www.w3.org/2000/svg" xmlns:xlink="http://www.w3.org/1999/xlink" version="1.1"><path d="M0 139L16 135.5C32 132 64 125 96 122.3C128 119.7 160 121.3 192 126.5C224 131.7 256 140.3 288 140.2C320 140 352 131 384 125.7C416 120.3 448 118.7 480 123C512 127.3 544 137.7 576 141.7C608 145.7 640 143.3 672 139C704 134.7 736 128.3 768 129.3C800 130.3 832 138.7 864 144C896 149.3 928 151.7 944 152.8L960 154L960 193L944 193C928 193 896 193 864 193C832 193 800 193 768 193C736 193 704 193 672 193C640 193 608 193 576 193C544 193 512 193 480 193C448 193 416 193 384 193C352 193 320 193 288 193C256 193 224 193 192 193C160 193 128 193 96 193C64 193 32 193 16 193L0 193Z" fill="#d53867"></path></svg>