<svg id="visual" viewBox="0 0 960 192" width="960" height="192" xmlns="http://www.w3.org/2000/svg" xmlns:xlink="http://www.w3.org/1999/xlink" version="1.1"><path d="M0 131L16 124.3C32 117.7 64 104.3 96 100.5C128 96.7 160 102.3 192 106.8C224 111.3 256 114.7 288 111.8C320 109 352 100 384 95C416 90 448 89 480 90.5C512 92 544 96 576 103C608 110 640 120 672 123.2C704 126.3 736 122.7 768 118.8C800 115 832 111 864 108.8C896 106.7 928 106.3 944 106.2L960 106L960 193L944 193C928 193 896 193 864 193C832 193 800 193 768 193C736 193 704 193 672 193C640 193 608 193 576 193C544 193 512 193 480 193C448 193 416 193 384 193C352 193 320 193 288 193C256 193 224 193 192 193C160 193 128 193 96 193C64 193 32 193 16 193L0 193Z" fill="#e34c67"></path></svg>