<svg id="visual" viewBox="0 0 960 192" width="960" height="192" xmlns="http://www.w3.org/2000/svg" xmlns:xlink="http://www.w3.org/1999/xlink" version="1.1"><path d="M0 31L16 40.8C32 50.7 64 70.3 96 77.5C128 84.7 160 79.3 192 71.3C224 63.3 256 52.7 288 54.2C320 55.7 352 69.3 384 68.5C416 67.7 448 52.3 480 53.7C512 55 544 73 576 82.3C608 91.7 640 92.3 672 92.8C704 93.3 736 93.7 768 93.2C800 92.7 832 91.3 864 87C896 82.7 928 75.3 944 71.7L960 68L960 193L944 193C928 193 896 193 864 193C832 193 800 193 768 193C736 193 704 193 672 193C640 193 608 193 576 193C544 193 512 193 480 193C448 193 416 193 384 193C352 193 320 193 288 193C256 193 224 193 192 193C160 193 128 193 96 193C64 193 32 193 16 193L0 193Z" fill="#fa7268"></path></svg>