<svg id="visual" viewBox="0 0 960 192" width="960" height="192" xmlns="http://www.w3.org/2000/svg" xmlns:xlink="http://www.w3.org/1999/xlink" version="1.1"><path d="M0 173L16 170C32 167 64 161 96 156.3C128 151.7 160 148.3 192 148C224 147.7 256 150.3 288 152.2C320 154 352 155 384 157.3C416 159.7 448 163.3 480 161.2C512 159 544 151 576 151.7C608 152.3 640 161.7 672 161.8C704 162 736 153 768 153.5C800 154 832 164 864 164C896 164 928 154 944 149L960 144L960 193L944 193C928 193 896 193 864 193C832 193 800 193 768 193C736 193 704 193 672 193C640 193 608 193 576 193C544 193 512 193 480 193C448 193 416 193 384 193C352 193 320 193 288 193C256 193 224 193 192 193C160 193 128 193 96 193C64 193 32 193 16 193L0 193Z" fill="#c62368"></path></svg>