<svg id="visual" viewBox="0 0 960 192" width="960" height="192" xmlns="http://www.w3.org/2000/svg" xmlns:xlink="http://www.w3.org/1999/xlink" version="1.1"><path d="M0 65L16 67.3C32 69.7 64 74.3 96 78.8C128 83.3 160 87.7 192 91.8C224 96 256 100 288 98.8C320 97.7 352 91.3 384 89.7C416 88 448 91 480 87C512 83 544 72 576 75.5C608 79 640 97 672 101.3C704 105.7 736 96.3 768 87.5C800 78.7 832 70.3 864 69.5C896 68.7 928 75.3 944 78.7L960 82L960 193L944 193C928 193 896 193 864 193C832 193 800 193 768 193C736 193 704 193 672 193C640 193 608 193 576 193C544 193 512 193 480 193C448 193 416 193 384 193C352 193 320 193 288 193C256 193 224 193 192 193C160 193 128 193 96 193C64 193 32 193 16 193L0 193Z" fill="#ef5f67"></path></svg>